<?xml version="1.0" standalone="no"?>
<!DOCTYPE svg PUBLIC "-//W3C//DTD SVG 20010904//EN"
 "http://www.w3.org/TR/2001/REC-SVG-20010904/DTD/svg10.dtd">
<svg version="1.0" xmlns="http://www.w3.org/2000/svg"
 width="512.000000pt" height="512.000000pt" viewBox="0 0 512.000000 512.000000"
 preserveAspectRatio="xMidYMid meet">
<metadata>
Created by potrace 1.14, written by Peter Selinger 2001-2017
</metadata>
<g transform="translate(0.000000,512.000000) scale(0.100000,-0.100000)"
fill="#000000" stroke="none">
<path d="M2475 5103 c-44 -23 -74 -53 -96 -95 -16 -31 -19 -59 -19 -166 l0
-129 -72 -7 c-104 -10 -307 -52 -423 -88 -760 -234 -1366 -853 -1579 -1613
-138 -496 -111 -1034 76 -1513 225 -575 699 -1063 1268 -1305 300 -127 597
-187 930 -187 301 0 574 50 848 154 259 99 558 281 609 371 73 130 -26 295
-177 295 -58 0 -76 -8 -200 -89 -331 -218 -684 -323 -1085 -323 -521 -1 -1003
200 -1375 572 -492 492 -683 1185 -514 1864 171 682 729 1240 1414 1411 323
80 681 77 990 -8 340 -95 621 -259 870 -507 374 -374 571 -849 572 -1375 0
-323 -54 -562 -195 -860 -53 -110 -62 -138 -62 -185 0 -70 28 -125 84 -165 38
-27 51 -30 115 -30 110 0 138 22 214 172 109 215 170 398 218 653 32 167 43
472 25 651 -74 713 -465 1350 -1072 1744 -290 189 -643 318 -972 356 l-107 13
0 128 c0 136 -7 165 -54 216 -53 59 -165 80 -231 45z"/>
<path d="M1007 4976 c-21 -8 -46 -21 -55 -28 -9 -8 -127 -106 -262 -218 -291
-241 -316 -264 -341 -312 -26 -52 -25 -124 4 -179 51 -97 173 -137 265 -87 53
29 586 472 617 513 61 80 53 188 -19 259 -61 61 -133 79 -209 52z"/>
<path d="M3980 4977 c-19 -6 -53 -30 -76 -52 -69 -69 -79 -172 -26 -254 29
-43 606 -517 647 -531 89 -29 195 12 243 95 34 59 28 157 -12 209 -31 41 -573
498 -619 522 -38 20 -114 26 -157 11z"/>
<path d="M3325 3591 c-50 -22 -52 -25 -410 -469 l-290 -361 -65 -1 c-358 -3
-535 -432 -283 -683 196 -197 522 -140 646 113 29 59 32 73 32 160 0 52 -3
109 -8 125 -7 28 10 52 309 420 174 215 325 410 336 434 75 165 -101 338 -267
262z"/>
</g>
</svg>
